<svg id="Capa_1" enable-background="new 0 0 322.625 322.625" height="512" viewBox="0 0 322.625 322.625" width="512" xmlns="http://www.w3.org/2000/svg"><g><g><path d="m99.269 55.839v-43.43c0-6.825-5.584-12.409-12.408-12.409s-12.409 5.584-12.409 12.409v43.43c0 6.825 5.584 12.409 12.409 12.409s12.408-5.584 12.408-12.409z"/><path d="m248.173 55.839v-43.43c0-6.825-5.584-12.409-12.409-12.409s-12.409 5.584-12.409 12.409v43.43c0 6.825 5.584 12.409 12.409 12.409s12.409-5.584 12.409-12.409z"/><path d="m310.216 290.611v-160.32h-297.807v160.32c0 17.682 14.332 32.014 32.014 32.014h233.779c17.682 0 32.014-14.332 32.014-32.014z"/><path d="m210.947 55.839v-18.613h-99.269v18.613c0 13.712-11.106 24.817-24.817 24.817s-24.818-11.106-24.818-24.817v-18.613h-17.62c-17.682 0-32.014 14.332-32.014 32.014v48.642h297.808v-48.642c0-17.682-14.332-32.014-32.014-32.014h-17.62v18.613c0 13.712-11.106 24.817-24.817 24.817s-24.819-11.106-24.819-24.817z"/></g></g></svg>