<svg height="512" viewBox="0 0 32 32" width="512" xmlns="http://www.w3.org/2000/svg"><g id="file_x2C__completed_x2C__confirmation_x2C__order_x2C__order_completed"><g id="file"><g fill="rgb(0,0,0)"><path d="m17.5 31h-14c-.276 0-.5-.224-.5-.5v-23c0-.276.224-.5.5-.5s.5.224.5.5v22.5h13.5c.276 0 .5.224.5.5s-.224.5-.5.5z"/><path d="m25.5 17c-.276 0-.5-.224-.5-.5v-14.5h-15.5c-.276 0-.5-.224-.5-.5s.224-.5.5-.5h16c.276 0 .5.224.5.5v15c0 .276-.224.5-.5.5z"/></g><g><path d="m22.5 17c.276 0 .5-.224.5-.5s-.224-.5-.5-.5c-.276 0-.5.224-.5.5s.224.5.5.5z" fill="rgb(0,0,0)"/></g><g><path d="m22.5 11c.276 0 .5-.224.5-.5s-.224-.5-.5-.5c-.276 0-.5.224-.5.5s.224.5.5.5z" fill="rgb(0,0,0)"/></g><g><path d="m22.5 14c.276 0 .5-.224.5-.5s-.224-.5-.5-.5c-.276 0-.5.224-.5.5s.224.5.5.5z" fill="rgb(0,0,0)"/></g><g><path d="m6.5 14h13c.276 0 .5-.224.5-.5s-.224-.5-.5-.5h-13c-.276 0-.5.224-.5.5s.224.5.5.5z" fill="rgb(0,0,0)"/></g><g><path d="m6.5 17h13c.276 0 .5-.224.5-.5s-.224-.5-.5-.5h-13c-.276 0-.5.224-.5.5s.224.5.5.5z" fill="rgb(0,0,0)"/></g><g><path d="m6.5 23h9c.276 0 .5-.224.5-.5s-.224-.5-.5-.5h-9c-.276 0-.5.224-.5.5s.224.5.5.5z" fill="rgb(0,0,0)"/></g><g><path d="m6.5 20h10c.276 0 .5-.224.5-.5s-.224-.5-.5-.5h-10c-.276 0-.5.224-.5.5s.224.5.5.5z" fill="rgb(0,0,0)"/></g><g><path d="m6.5 11h13c.276 0 .5-.224.5-.5s-.224-.5-.5-.5h-13c-.276 0-.5.224-.5.5s.224.5.5.5z" fill="rgb(0,0,0)"/></g></g><g><g><g><g><path d="m23.5 31c-3.584 0-6.5-2.916-6.5-6.5s2.916-6.5 6.5-6.5c1.13 0 2.244.295 3.22.853.24.137.323.442.186.682s-.442.323-.682.186c-.826-.471-1.767-.721-2.724-.721-3.033 0-5.5 2.467-5.5 5.5s2.467 5.5 5.5 5.5 5.5-2.467 5.5-5.5c0-.467-.059-.932-.174-1.379-.069-.268.091-.54.359-.609.265-.069.54.092.609.359.137.529.206 1.077.206 1.629 0 3.584-2.916 6.5-6.5 6.5z" fill="rgb(0,0,0)"/></g></g></g><g><g><g><path d="m23.5 26.699c-.004 0-.008 0-.012 0-.145-.004-.28-.069-.373-.18l-2.5-3c-.176-.213-.147-.528.064-.705.213-.176.527-.147.705.064l2.133 2.561 5.548-6.115c.188-.204.504-.216.706-.031.203.187.217.503.031.707l-5.934 6.537c-.095.104-.227.162-.368.162z" fill="rgb(0,0,0)"/></g></g></g></g><g id="XMLID_22_"><path d="m9.5 8h-5.979c-.202 0-.384-.122-.461-.308-.078-.187-.035-.402.107-.545l5.979-6c.195-.195.511-.196.707-.001.195.195.196.511.001.707l-5.128 5.147h4.274v-3c0-.276.224-.5.5-.5s.5.224.5.5v3.5c0 .276-.224.5-.5.5z" fill="rgb(0,0,0)"/></g></g></svg>