<?xml version="1.0"?>
<svg xmlns="http://www.w3.org/2000/svg" viewBox="0 0 32 32" width="512" height="512"><g id="Layer_19" data-name="Layer 19"><path d="M17,11.11c2.34.37,3,2,3,2.89a1,1,0,0,1-2,0c0-.18-.18-1-2-1s-2,.82-2,1,.16,1,2,1c3.16,0,4,2,4,3s-.66,2.55-3,2.92V22a1,1,0,0,1-2,0V20.92a3.56,3.56,0,0,1-2.42-1.32A2.8,2.8,0,0,1,12,18a1,1,0,0,1,2,0c0,.14.16,1,2,1h0c2,0,2-1,2-1s-.16-1-2-1c-3.16,0-4-2-4-3s.66-2.52,3-2.89V10a1,1,0,0,1,2,0ZM21,11a1,1,0,0,0,.71-.29L25,7.41V9a1,1,0,0,0,2,0V5a1,1,0,0,0-.08-.38,1,1,0,0,0-.54-.54A1,1,0,0,0,26,4H22a1,1,0,0,0,0,2h1.59l-3.3,3.29a1,1,0,0,0,0,1.42A1,1,0,0,0,21,11Zm6.8,2.82a1,1,0,0,0-2,.36A10,10,0,1,1,16,6a9.08,9.08,0,0,1,.91,0A1,1,0,0,0,18,5.14a1,1,0,0,0-.91-1.09c-.36,0-.72,0-1.09,0a12,12,0,1,0,11.8,9.82Z"/></g></svg>
