<svg height="512" viewBox="0 0 32 32" width="512" xmlns="http://www.w3.org/2000/svg"><g id="Layer_20" data-name="Layer 20"><path d="m17 11.12a3.6 3.6 0 0 1 2.42 1.29 2.76 2.76 0 0 1 .58 1.59 1 1 0 0 1 -2 0c0-.18-.18-1-2-1-1.84 0-2 .82-2 1s.16 1 2 1c3.16 0 4 2 4 3s-.66 2.55-3 2.92v1.08a1 1 0 0 1 -2 0v-1.08a3.56 3.56 0 0 1 -2.42-1.32 2.8 2.8 0 0 1 -.58-1.6 1 1 0 0 1 2 0c0 .14.16 1 2 1 2 0 2-1 2-1s-.16-1-2-1c-3.16 0-4-2-4-3a2.76 2.76 0 0 1 .58-1.59 3.6 3.6 0 0 1 2.42-1.29v-1.12a1 1 0 0 1 2 0zm3.62-.2a1 1 0 0 0 .38.08h4a1 1 0 0 0 0-2h-1.59l3.3-3.29a1 1 0 1 0 -1.42-1.42l-3.29 3.3v-1.59a1 1 0 0 0 -2 0v4a1 1 0 0 0 .08.38 1 1 0 0 0 .54.54zm7.18 2.9a1 1 0 0 0 -2 .36 10.9 10.9 0 0 1 .2 1.82 10 10 0 1 1 -10-10 9.08 9.08 0 0 1 .91 0 1 1 0 0 0 1.09-.86 1 1 0 0 0 -.91-1.09c-.36 0-.72 0-1.09 0a12 12 0 1 0 11.8 9.82z"/></g></svg>