<svg enable-background="new 0 0 100 100" height="100" viewBox="0 0 100 100" width="100" xmlns="http://www.w3.org/2000/svg"><g id="Layer_1"><g fill="rgb(0,0,0)"><path d="m15.23 50c0-.829-.672-1.5-1.5-1.5h-6.529c-.828 0-1.5.671-1.5 1.5s.672 1.5 1.5 1.5h6.529c.829 0 1.5-.671 1.5-1.5z"/><path d="m50 15.23c.828 0 1.5-.671 1.5-1.5v-6.529c0-.829-.672-1.5-1.5-1.5s-1.5.671-1.5 1.5v6.529c0 .829.672 1.5 1.5 1.5z"/><path d="m50 84.77c-.828 0-1.5.672-1.5 1.5v6.529c0 .828.672 1.5 1.5 1.5s1.5-.672 1.5-1.5v-6.529c0-.829-.672-1.5-1.5-1.5z"/><path d="m92.799 48.5h-6.529c-.828 0-1.5.671-1.5 1.5s.672 1.5 1.5 1.5h6.529c.828 0 1.5-.671 1.5-1.5s-.672-1.5-1.5-1.5z"/><path d="m17.84 66.836-5.655 3.265c-.718.414-.963 1.331-.549 2.049.277.481.782.75 1.3.75.255 0 .513-.064.749-.201l5.655-3.265c.718-.414.963-1.331.549-2.049-.414-.719-1.332-.964-2.049-.549z"/><path d="m29.899 12.186c-.414-.719-1.333-.963-2.049-.549-.718.414-.963 1.332-.549 2.049l3.265 5.654c.277.481.782.75 1.3.75.255 0 .513-.065.749-.202.718-.414.963-1.332.549-2.049z"/><path d="m69.434 80.66c-.413-.719-1.333-.964-2.049-.549-.718.414-.963 1.331-.549 2.049l3.265 5.655c.277.481.782.75 1.3.75.255 0 .513-.064.749-.201.718-.414.963-1.331.549-2.049z"/><path d="m81.411 33.366c.255 0 .513-.065.749-.202l5.654-3.265c.718-.414.963-1.332.549-2.049-.413-.719-1.333-.962-2.049-.549l-5.654 3.265c-.718.414-.963 1.332-.549 2.049.278.482.783.751 1.3.751z"/><path d="m32.615 80.111c-.717-.415-1.635-.17-2.049.549l-3.266 5.655c-.414.718-.169 1.635.549 2.049.236.137.494.201.749.201.518 0 1.022-.269 1.3-.75l3.266-5.655c.414-.718.169-1.635-.549-2.049z"/><path d="m19.34 30.566-5.654-3.265c-.717-.414-1.635-.17-2.049.549-.414.717-.169 1.635.549 2.049l5.654 3.265c.236.137.494.202.749.202.518 0 1.022-.269 1.3-.75.414-.718.169-1.636-.549-2.05z"/><path d="m87.815 70.102-5.655-3.266c-.716-.415-1.635-.17-2.049.549-.414.718-.169 1.635.549 2.049l5.655 3.266c.236.137.494.201.749.201.518 0 1.022-.269 1.3-.75.414-.718.169-1.635-.549-2.049z"/><path d="m72.149 11.637c-.716-.414-1.636-.17-2.049.549l-3.265 5.654c-.414.717-.169 1.635.549 2.049.236.137.494.202.749.202.518 0 1.022-.269 1.3-.75l3.265-5.654c.414-.719.169-1.636-.549-2.05z"/><path d="m51.5 49.379v-25.863c0-.829-.672-1.5-1.5-1.5s-1.5.671-1.5 1.5v22.863l-1.354-1.354c-.586-.586-1.535-.586-2.121 0-.586.585-.586 1.536 0 2.121l3.475 3.475v4.676c0 .828.672 1.5 1.5 1.5s1.5-.672 1.5-1.5v-1.676l8.53 8.53c.293.293.677.439 1.061.439s.768-.146 1.061-.439c.586-.586.586-1.535 0-2.121z"/></g></g><g id="Layer_2"/></svg>