<svg clip-rule="evenodd" fill-rule="evenodd" height="512" stroke-linejoin="round" stroke-miterlimit="2" viewBox="0 0 33 32" width="512" xmlns="http://www.w3.org/2000/svg"><path d="m15.011 26c1.11 0 2.011.901 2.011 2.011s-.901 2.011-2.011 2.011-2.011-.901-2.011-2.011.901-2.011 2.011-2.011zm8.747 0c1.11 0 2.011.901 2.011 2.011s-.901 2.011-2.011 2.011-2.011-.901-2.011-2.011.901-2.011 2.011-2.011zm-22.1-20.089h2.841c.553 0 1.039.369 1.187.903 0 0 .001 0 .001.001.957 3.445 3.025 10.889 3.986 14.347.451 1.625 1.931 2.749 3.616 2.749h12.142c1.723 0 3.225-1.173 3.642-2.845.846-3.381 2.526-10.102 2.526-10.102.093-.373.009-.769-.228-1.072-.237-.304-.6-.481-.985-.481h-17.386c-.69 0-1.25.56-1.25 1.25s.56 1.25 1.25 1.25h15.785l-2.138 8.551c-.139.558-.641.949-1.216.949h-12.142c-.563 0-1.057-.376-1.208-.918 0-.001 0-.001 0-.001-.961-3.458-3.029-10.902-3.986-14.347-.447-1.615-1.919-2.734-3.596-2.734h-2.841c-.69 0-1.25.56-1.25 1.25s.56 1.25 1.25 1.25z"/></svg>