<?xml version="1.0" encoding="iso-8859-1"?>
<!-- Generator: Adobe Illustrator 19.0.0, SVG Export Plug-In . SVG Version: 6.00 Build 0)  -->
<svg version="1.1" id="Layer_1" xmlns="http://www.w3.org/2000/svg" xmlns:xlink="http://www.w3.org/1999/xlink" x="0px" y="0px"
	 viewBox="0 0 512 512" style="enable-background:new 0 0 512 512;" xml:space="preserve">
<g>
	<g>
		<path d="M423.952,248.137V0H88.048v248.137h-16.15v15.726h16.15V512h335.904V263.863h16.15v-15.726H423.952z M151.8,15.726
			h208.397v104.34H151.8V15.726z M151.8,247.995V135.793h96.336v112.344H151.8V247.995z M151.8,264.005v-0.141h96.336v112.345H151.8
			V264.005z M136.075,264.005v127.93v104.341h-32.301V263.863h32.301V264.005z M136.075,120.066v127.93v0.142h-32.301V15.726h32.301
			V120.066z M360.199,496.275H151.8V391.934h208.398V496.275z M360.199,264.005v112.204h-96.336V263.863h96.336V264.005z
			 M360.199,247.996v0.142h-96.336v-0.001V135.793h96.336V247.996z M408.226,496.274h-32.301V391.933V264.005v-0.141h32.301V496.274
			z M408.226,248.137h-32.301v-0.142v-127.93V15.726h32.301V248.137z"/>
	</g>
</g>
<g>
</g>
<g>
</g>
<g>
</g>
<g>
</g>
<g>
</g>
<g>
</g>
<g>
</g>
<g>
</g>
<g>
</g>
<g>
</g>
<g>
</g>
<g>
</g>
<g>
</g>
<g>
</g>
<g>
</g>
</svg>
